<?xml version="1.0" encoding="UTF-8" standalone="no"?>
<!-- Created with Inkscape (http://www.inkscape.org/) -->

<svg
   xmlns:dc="http://purl.org/dc/elements/1.1/"
   xmlns:cc="http://creativecommons.org/ns#"
   xmlns:rdf="http://www.w3.org/1999/02/22-rdf-syntax-ns#"
   xmlns:svg="http://www.w3.org/2000/svg"
   xmlns="http://www.w3.org/2000/svg"
   xmlns:xlink="http://www.w3.org/1999/xlink"
   xmlns:sodipodi="http://sodipodi.sourceforge.net/DTD/sodipodi-0.dtd"
   xmlns:inkscape="http://www.inkscape.org/namespaces/inkscape"
   width="32"
   height="32"
   id="svg2"
   version="1.1"
   inkscape:version="0.48.3.1 r9886"
   sodipodi:docname="button.svg"
   inkscape:export-filename="reblog-selected.png"
   inkscape:export-xdpi="120.9375"
   inkscape:export-ydpi="120.9375"
   style="enable-background:new">
  <defs
     id="defs4">
    <filter
       inkscape:collect="always"
       id="filter3870"
       color-interpolation-filters="sRGB">
      <feGaussianBlur
         inkscape:collect="always"
         stdDeviation="0.64304402"
         id="feGaussianBlur3872" />
    </filter>
    <filter
       inkscape:collect="always"
       id="filter3874"
       color-interpolation-filters="sRGB">
      <feGaussianBlur
         inkscape:collect="always"
         stdDeviation="0.59328027"
         id="feGaussianBlur3876" />
    </filter>
    <filter
       inkscape:collect="always"
       id="filter3902"
       color-interpolation-filters="sRGB">
      <feGaussianBlur
         inkscape:collect="always"
         stdDeviation="0.59328027"
         id="feGaussianBlur3904" />
    </filter>
    <filter
       inkscape:collect="always"
       id="filter3930"
       color-interpolation-filters="sRGB">
      <feGaussianBlur
         inkscape:collect="always"
         stdDeviation="0.64773738"
         id="feGaussianBlur3932" />
    </filter>
    <filter
       inkscape:collect="always"
       id="filter3958"
       color-interpolation-filters="sRGB">
      <feGaussianBlur
         inkscape:collect="always"
         stdDeviation="0.72658828"
         id="feGaussianBlur3960" />
    </filter>
  </defs>
  <sodipodi:namedview
     id="base"
     pagecolor="#ffffff"
     bordercolor="#666666"
     borderopacity="1.0"
     inkscape:pageopacity="0.0"
     inkscape:pageshadow="2"
     inkscape:zoom="21.40625"
     inkscape:cx="16"
     inkscape:cy="16"
     inkscape:document-units="px"
     inkscape:current-layer="layer4"
     showgrid="false"
     inkscape:window-width="1063"
     inkscape:window-height="1097"
     inkscape:window-x="385"
     inkscape:window-y="0"
     inkscape:window-maximized="0" />
  <metadata
     id="metadata7">
    <rdf:RDF>
      <cc:Work
         rdf:about="">
        <dc:format>image/svg+xml</dc:format>
        <dc:type
           rdf:resource="http://purl.org/dc/dcmitype/StillImage" />
        <dc:title></dc:title>
      </cc:Work>
    </rdf:RDF>
  </metadata>
  <g
     inkscape:groupmode="layer"
     id="layer6"
     inkscape:label="bg"
     style="display:none"
     transform="translate(0,-480)"
     sodipodi:insensitive="true">
    <rect
       style="color:#000000;fill:#22ac3c icc-color(Japan-Color-2001-Coated, 0.74869108, 0, 0.98429322, 0);fill-opacity:1;fill-rule:evenodd;stroke:none;stroke-width:1.77165353;marker:none;visibility:visible;display:inline;overflow:visible;enable-background:accumulate"
       id="rect2998"
       width="32.888889"
       height="32.944447"
       x="-0.46006966"
       y="479.59464" />
    <path
       style="font-size:medium;font-style:normal;font-variant:normal;font-weight:normal;font-stretch:normal;text-indent:0;text-align:start;text-decoration:none;line-height:normal;letter-spacing:normal;word-spacing:normal;text-transform:none;direction:ltr;block-progression:tb;writing-mode:lr-tb;text-anchor:start;baseline-shift:baseline;color:#000000;fill:#282c2c;fill-opacity:0.08064515;stroke:none;stroke-width:50.00000381;marker:none;visibility:visible;display:inline;overflow:visible;enable-background:accumulate;font-family:Sans;-inkscape-font-specification:Sans"
       d="m 27.169487,487.66803 c -6.90696,0.0198 -13.17148,-0.0434 -20.07768,0.0356 -3.11717,0 -6.3456901,3.13796 -6.3456901,6.38753 -0.022,1.21188 -0.0186,4 -0.0186,5.24857 1.9395201,-1.93952 2.5425601,-2.56468 4.0759601,-4.09808 0,0 0.0266,-1.87353 0.0266,-1.17813 0,-1.13788 0.79857,-2.36351 2.24281,-2.31808 1.37276,-0.0529 2.74709,0.0229 4.12065,-0.0146 5.32533,0 10.65065,0 15.97598,0 0,0.6938 0,1.3876 0,2.0814 1.26473,-1.26473 2.52904,-2.60568 4.11585,-4.11278 -1.66745,-1.66745 -2.39993,-2.45074 -4.11393,-4.05507 -0.001,0.66975 0.002,1.42779 -0.002,2.02369 z"
       id="rect3000"
       inkscape:connector-curvature="0"
       sodipodi:nodetypes="cccccccccccccc" />
    <use
       x="0"
       y="0"
       xlink:href="#rect3000"
       id="use3766"
       transform="matrix(-1,0,0,-1,272.18448,1290.2068)"
       width="512"
       height="512"
       style="fill:#ffffff;display:inline" />
  </g>
  <g
     transform="translate(0,-480)"
     style="display:none"
     inkscape:label="pin-selected"
     id="g3883"
     inkscape:groupmode="layer">
    <flowRoot
       transform="matrix(1.6346445,0,0,1.6346445,-113.10701,-135.06198)"
       style="font-size:12px;font-style:normal;font-variant:normal;font-weight:normal;font-stretch:normal;text-align:start;line-height:125%;letter-spacing:0px;word-spacing:0px;writing-mode:lr-tb;text-anchor:start;fill:#ffffff;fill-opacity:0.42261903;stroke:none;font-family:MS UI Gothic;-inkscape-font-specification:MS UI Gothic"
       id="flowRoot3885"
       xml:space="preserve"><flowRegion
         id="flowRegion3887"><rect
           style="fill:#ffffff;fill-opacity:0.42261903"
           y="162.21121"
           x="40.052151"
           height="250.99348"
           width="375.15515"
           id="rect3889" /></flowRegion><flowPara
         id="flowPara3891" /></flowRoot>    <path
       style="color:#000000;fill:#ffffff;fill-opacity:0.98924734;fill-rule:evenodd;stroke:none;stroke-width:50;marker:none;visibility:visible;display:inline;overflow:visible;filter:url(#filter3870);enable-background:accumulate"
       d="m 17.703125,481.00437 c -3.25193,0.0179 -6.05007,1.64634 -6.8125,4.28125 -0.456315,1.57698 -0.0722,3.22052 0.875,4.65625 l -0.59375,1.28125 c -2.798464,0.45263 -5.056555,2.06849 -5.75,4.46875 -0.901513,3.12038 1.133642,6.50929 4.6875,8.21875 l -2.46875,5.5625 c -0.24044,0.53632 -0.12497,1.40836 0.53125,1.40625 0.46803,-0.002 1.13001,-0.0483 1.5625,-0.96875 l 2.375,-5.25 c 4.580467,1.19501 9.093037,-0.67809 10.125,-4.25 0.5581,-1.93176 -0.01661,-3.97988 -1.375,-5.65625 l 0.4375,-0.9375 c 2.574676,-0.43909 4.640809,-1.94292 5.28125,-4.15625 0.97592,-3.37268 -1.72938,-7.07218 -6.0625,-8.28125 -0.94787,-0.26449 -1.90196,-0.38002 -2.8125,-0.375 z m 0.15625,1 c 0.78016,-0.004 1.5941,0.12418 2.40625,0.34375 3.71267,1.0037 6.05493,4.0752 5.21875,6.875 -0.83617,2.79981 -4.50608,4.2537 -8.21875,3.25 -3.71267,-1.0037 -6.05492,-4.0752 -5.21875,-6.875 0.65326,-2.18735 3.02622,-3.57888 5.8125,-3.59375 z m -2.0625,1.78125 c -0.86492,0.55135 -1.46981,1.35727 -1.625,2.3125 -0.33797,2.08027 1.59381,4.10016 4.28125,4.5 2.23493,0.33252 4.29605,-0.55821 5.125,-2.0625 -1.01869,0.64937 -2.39034,0.96624 -3.84375,0.75 -2.68745,-0.39984 -4.61922,-2.41973 -4.28125,-4.5 0.0569,-0.35028 0.17591,-0.69542 0.34375,-1 z m -3.34375,7.0625 c 1.101428,1.22007 2.668307,2.23018 4.53125,2.75 1.061614,0.29622 2.115389,0.4147 3.125,0.375 l -1.34375,2.96875 c -0.2993,0.65979 -0.95437,1.10662 -1.84375,1.28125 -0.88939,0.17463 -1.98173,0.0528 -3.0625,-0.4375 -1.08078,-0.49028 -1.92059,-1.24703 -2.375,-2.03125 -0.45442,-0.78423 -0.51805,-1.55897 -0.21875,-2.21875 l 1.1875,-2.6875 z m -1.75,1.40625 -0.375,0.84375 c -0.45803,1.00969 -0.29688,2.18977 0.28125,3.1875 0.57813,0.99773 1.55357,1.86641 2.8125,2.4375 1.25893,0.5711 2.58723,0.72218 3.71875,0.5 1.13152,-0.22217 2.10447,-0.86531 2.5625,-1.875 l 0.71875,-1.59375 c 0.867148,1.33766 1.173325,2.87851 0.75,4.34375 -0.40033,1.38567 -1.382997,2.48968 -2.71875,3.1875 -1.729444,0.64787 -3.823142,0.74714 -5.9375,0.15625 -3.223946,-0.90097 -5.580239,-3.15883 -6.21875,-5.65625 -0.05926,-0.59876 0.01593,-1.18739 0.1875,-1.78125 0.538371,-1.86345 2.150403,-3.19676 4.21875,-3.75 z"
       id="path3893"
       inkscape:connector-curvature="0" />
    <path
       style="color:#000000;fill:#ffffff;fill-opacity:0.98924734;fill-rule:evenodd;stroke:none;stroke-width:50;marker:none;visibility:visible;display:inline;overflow:visible;enable-background:accumulate"
       d="m 17.703125,481.00437 c -3.25193,0.0179 -6.05007,1.64634 -6.8125,4.28125 -0.456315,1.57698 -0.0722,3.22052 0.875,4.65625 l -0.59375,1.28125 c -2.798464,0.45264 -5.056555,2.06849 -5.75,4.46875 -0.901513,3.12038 1.133642,6.50929 4.6875,8.21875 l -2.46875,5.5625 c -0.24044,0.53632 -0.12497,1.40836 0.53125,1.40625 0.46803,-0.002 1.13001,-0.0483 1.5625,-0.96875 l 2.375,-5.25 c 4.580467,1.19501 9.093037,-0.67809 10.125,-4.25 0.5581,-1.93176 -0.01661,-3.97988 -1.375,-5.65625 l 0.4375,-0.9375 c 2.574676,-0.43909 4.640809,-1.94292 5.28125,-4.15625 0.97592,-3.37268 -1.72938,-7.07218 -6.0625,-8.28125 -0.94787,-0.26449 -1.90196,-0.38002 -2.8125,-0.375 z m 0.15625,1 c 0.78016,-0.004 1.5941,0.12418 2.40625,0.34375 3.71267,1.0037 6.05493,4.0752 5.21875,6.875 -0.83617,2.79981 -4.50608,4.2537 -8.21875,3.25 -3.71267,-1.0037 -6.05492,-4.0752 -5.21875,-6.875 0.65326,-2.18735 3.02622,-3.57888 5.8125,-3.59375 z m -2.0625,1.78125 c -0.86492,0.55135 -1.46981,1.35727 -1.625,2.3125 -0.33797,2.08027 1.59381,4.10016 4.28125,4.5 2.23493,0.33252 4.29605,-0.55821 5.125,-2.0625 -1.01869,0.64937 -2.39034,0.96624 -3.84375,0.75 -2.68745,-0.39984 -4.61922,-2.41973 -4.28125,-4.5 0.0569,-0.35028 0.17591,-0.69542 0.34375,-1 z m -3.34375,7.0625 c 1.101428,1.22007 2.668307,2.23018 4.53125,2.75 1.061614,0.29622 2.115389,0.4147 3.125,0.375 l -1.34375,2.96875 c -0.2993,0.65979 -0.95437,1.10662 -1.84375,1.28125 -0.88939,0.17463 -1.98173,0.0528 -3.0625,-0.4375 -1.08078,-0.49028 -1.92059,-1.24703 -2.375,-2.03125 -0.45442,-0.78423 -0.51805,-1.55897 -0.21875,-2.21875 l 1.1875,-2.6875 z m -1.75,1.40625 -0.375,0.84375 c -0.45803,1.00969 -0.29688,2.18977 0.28125,3.1875 0.57813,0.99773 1.55357,1.86641 2.8125,2.4375 1.25893,0.5711 2.58723,0.72218 3.71875,0.5 1.13152,-0.22217 2.10447,-0.86531 2.5625,-1.875 l 0.71875,-1.59375 c 0.867148,1.33766 1.173325,2.87851 0.75,4.34375 -0.40033,1.38567 -1.382997,2.48968 -2.71875,3.1875 -1.729444,0.64787 -3.823142,0.74714 -5.9375,0.15625 -3.223946,-0.90097 -5.580239,-3.15883 -6.21875,-5.65625 -0.05926,-0.59876 0.01593,-1.18739 0.1875,-1.78125 0.538371,-1.86345 2.150403,-3.19676 4.21875,-3.75 z"
       id="path3893-4"
       inkscape:connector-curvature="0" />
  </g>
  <g
     transform="translate(0,-480)"
     style="display:none"
     inkscape:label="next-selected"
     id="g3879"
     inkscape:groupmode="layer">
    <path
       id="path3881"
       d="m 20.166797,487.16822 c 1.79743,-0.0827 10.80078,7.10251 10.80078,8.75977 0,1.73876 -9.9106,9.56274 -11.01172,8.69336 -0.3916,-0.30919 -0.64475,-2.4908 -0.75781,-5.20899 l -16.37695,0 c -0.9938801,0 -1.7949201,-0.76328 -1.7949201,-1.71093 l 0,-3.54688 c 0,-0.94765 0.80104,-1.71094 1.7949201,-1.71094 l 16.37695,0 c 0.11306,-2.71819 0.36621,-4.89979 0.75781,-5.20898 0.0516,-0.0408 0.12254,-0.0623 0.21094,-0.0664 z"
       style="color:#000000;fill:#ffffff;fill-opacity:1;fill-rule:evenodd;stroke:none;stroke-width:50;marker:none;visibility:visible;display:inline;overflow:visible;filter:url(#filter3874);enable-background:accumulate"
       inkscape:connector-curvature="0" />
    <path
       id="path3881-4"
       d="m 20.166797,487.16822 c 1.79743,-0.0827 10.80078,7.10251 10.80078,8.75977 0,1.73876 -9.9106,9.56274 -11.01172,8.69336 -0.3916,-0.30919 -0.64475,-2.4908 -0.75781,-5.20899 l -16.37695,0 c -0.9938801,0 -1.7949201,-0.76328 -1.7949201,-1.71093 l 0,-3.54688 c 0,-0.94765 0.80104,-1.71094 1.7949201,-1.71094 l 16.37695,0 c 0.11306,-2.71819 0.36621,-4.89979 0.75781,-5.20898 0.0516,-0.0408 0.12254,-0.0623 0.21094,-0.0664 z"
       style="color:#000000;fill:#ffffff;fill-opacity:1;fill-rule:evenodd;stroke:none;stroke-width:50;marker:none;visibility:visible;display:inline;overflow:visible;enable-background:accumulate"
       inkscape:connector-curvature="0" />
  </g>
  <g
     transform="translate(0,-480)"
     style="display:none"
     inkscape:label="prev-selected"
     id="g3875"
     inkscape:groupmode="layer">
    <path
       inkscape:connector-curvature="0"
       id="path3877"
       d="m 11.826957,487.16822 c -1.79743,-0.0827 -10.8007801,7.10251 -10.8007801,8.75977 0,1.73876 9.9106001,9.56274 11.0117101,8.69336 0.3916,-0.30919 0.64475,-2.4908 0.75782,-5.20899 l 16.37695,0 c 0.99388,0 1.79492,-0.76328 1.79492,-1.71093 l 0,-3.54688 c 0,-0.94765 -0.80104,-1.71094 -1.79492,-1.71094 l -16.37695,0 c -0.11307,-2.71819 -0.36622,-4.89979 -0.75782,-5.20898 -0.0516,-0.0408 -0.12254,-0.0623 -0.21093,-0.0664 z"
       style="color:#000000;fill:#ffffff;fill-opacity:1;fill-rule:evenodd;stroke:none;stroke-width:50;marker:none;visibility:visible;display:inline;overflow:visible;filter:url(#filter3902);enable-background:accumulate" />
    <path
       inkscape:connector-curvature="0"
       id="path3877-2"
       d="m 11.826957,487.16822 c -1.79743,-0.0827 -10.8007801,7.10251 -10.8007801,8.75977 0,1.73876 9.9106001,9.56274 11.0117101,8.69336 0.3916,-0.30919 0.64475,-2.4908 0.75782,-5.20899 l 16.37695,0 c 0.99388,0 1.79492,-0.76328 1.79492,-1.71093 l 0,-3.54688 c 0,-0.94765 -0.80104,-1.71094 -1.79492,-1.71094 l -16.37695,0 c -0.11307,-2.71819 -0.36622,-4.89979 -0.75782,-5.20898 -0.0516,-0.0408 -0.12254,-0.0623 -0.21093,-0.0664 z"
       style="color:#000000;fill:#ffffff;fill-opacity:1;fill-rule:evenodd;stroke:none;stroke-width:50;marker:none;visibility:visible;display:inline;overflow:visible;enable-background:accumulate" />
  </g>
  <g
     style="display:inline"
     transform="translate(0,-1020.3622)"
     id="g3869"
     inkscape:groupmode="layer"
     inkscape:label="reblog-selected">
    <path
       style="color:#000000;fill:#ffffff;fill-opacity:1;fill-rule:evenodd;stroke:none;stroke-width:49.90000153;marker:none;visibility:visible;display:inline;overflow:visible;filter:url(#filter3930);enable-background:accumulate"
       d="m 26.640625,1025.2416 c -0.0588,0 -0.08967,0.027 -0.125,0.062 -0.18877,0.1872 -0.3123,1.125 -0.375,2.3438 l -19.3125,0 c -0.001,0 0.001,0.021 0,0.031 -0.0731,0 -0.14513,-0.031 -0.21875,-0.031 -2.8902,0 -5.27532,2.2526 -5.46875,5.0937 -0.007,0.049 0.0016,0.1054 0,0.1563 l 0,0.2187 0,2.9375 c 0,1.0769 0.86055,1.9375 1.9375,1.9375 1.07695,0 1.9375,-0.8606 1.9375,-1.9375 l 0,-1.9375 c -5.6e-4,-0.022 0,-0.041 0,-0.062 0,-0.014 0,-0.017 0,-0.031 0.0224,-1.3648 1.12984,-2.4688 2.5,-2.4688 0.0216,0 0.041,10e-4 0.0625,0 l 18.5625,0 c 0.0627,1.2188 0.18623,2.1878 0.375,2.375 0.56529,0.5607 4.34375,-3.191 4.34375,-4.3125 0,-1.0514 -3.33733,-4.4206 -4.21875,-4.375 z m 2.28125,9.3438 c -1.07695,0 -1.9375,0.8606 -1.9375,1.9375 l 0,1.9375 c 5.6e-4,0.022 0,0.041 0,0.062 0,0.014 0,0.017 0,0.031 -0.0224,1.3648 -1.12984,2.4688 -2.5,2.4688 -0.0216,0 -0.07225,0 -0.09375,0 l -18.53125,0 c -0.0627,-1.2188 -0.18623,-2.1878 -0.375,-2.375 -0.56529,-0.5607 -4.34375,3.2222 -4.34375,4.3437 0,1.0514 3.30608,4.3894 4.1875,4.3438 0.0588,0 0.12092,-0.027 0.15625,-0.062 0.18877,-0.1872 0.3123,-1.125 0.375,-2.3438 l 19.3125,0 c 0.001,0 -0.001,-0.021 0,-0.031 0.0731,0 0.14513,0.031 0.21875,0.031 2.8902,0 5.27532,-2.2526 5.46875,-5.0937 0.007,-0.049 -0.0016,-0.1054 0,-0.1563 l 0,-0.2187 0,-2.9375 c 0,-1.0769 -0.86055,-1.9375 -1.9375,-1.9375 z"
       id="path3871"
       inkscape:connector-curvature="0" />
    <path
       style="color:#000000;fill:#ffffff;fill-opacity:1;fill-rule:evenodd;stroke:none;stroke-width:49.90000153;marker:none;visibility:visible;display:inline;overflow:visible;enable-background:accumulate"
       d="m 26.640624,1025.2414 c -0.0588,0 -0.08967,0.028 -0.125,0.062 -0.18877,0.1872 -0.3123,1.125 -0.375,2.3438 l -19.312499,0 c -0.001,0 0.001,0.021 0,0.031 -0.0731,0 -0.14513,-0.031 -0.21875,-0.031 -2.8902,0 -5.27532,2.2526 -5.46875,5.0937 -0.007,0.049 0.0016,0.1054 0,0.1563 l 0,0.2187 0,2.9375 c 0,1.0769 0.86055,1.9375 1.9375,1.9375 1.07695,0 1.9375,-0.8606 1.9375,-1.9375 l 0,-1.9375 c -5.6e-4,-0.022 0,-0.04 0,-0.062 0,-0.014 0,-0.017 0,-0.031 0.0224,-1.3648 1.12984,-2.4688 2.5,-2.4688 0.0216,0 0.041,10e-4 0.0625,0 l 18.562499,0 c 0.0627,1.2188 0.18623,2.1878 0.375,2.375 0.56529,0.5607 4.34375,-3.191 4.34375,-4.3125 0,-1.0514 -3.33733,-4.4206 -4.21875,-4.375 z m 2.28125,9.3438 c -1.07695,0 -1.9375,0.8606 -1.9375,1.9375 l 0,1.9375 c 5.6e-4,0.022 0,0.041 0,0.062 0,0.014 0,0.017 0,0.031 -0.0224,1.3648 -1.12984,2.4688 -2.5,2.4688 -0.0216,0 -0.07225,-10e-4 -0.09375,0 l -18.531249,0 c -0.0627,-1.2188 -0.18623,-2.1878 -0.375,-2.375 -0.56529,-0.5607 -4.34375,3.2222 -4.34375,4.3437 0,1.0514 3.30608,4.3894 4.1875,4.3438 0.0588,0 0.12092,-0.027 0.15625,-0.062 0.18877,-0.1872 0.3123,-1.125 0.375,-2.3438 l 19.312499,0 c 0.001,0 -10e-4,-0.021 0,-0.031 0.0731,0 0.14513,0.031 0.21875,0.031 2.8902,0 5.27532,-2.2526 5.46875,-5.0937 0.007,-0.049 -0.0016,-0.1054 0,-0.1563 l 0,-0.2187 0,-2.9375 c 0,-1.0769 -0.86055,-1.9375 -1.9375,-1.9375 z"
       id="path3871-5"
       inkscape:connector-curvature="0" />
  </g>
  <g
     transform="translate(0,-480)"
     style="display:none"
     inkscape:label="like-selected"
     id="g3865"
     inkscape:groupmode="layer">
    <path
       inkscape:connector-curvature="0"
       id="path3867"
       d="m 9.234375,481.81687 c -4.51297,0 -8.24605,3.71323 -8.1875,8.25 0.0547,4.23561 2.74632,8.24928 5.71875,11.71875 2.97244,3.46946 6.32782,6.35651 8.1875,7.875 a 1.5626562,1.5626562 0 0 0 0.0625,0.0312 1.5626562,1.5626562 0 0 0 0.0625,0.0625 1.5626562,1.5626562 0 0 0 0.0625,0.0312 1.5626562,1.5626562 0 0 0 0.4375,0.1875 1.5626562,1.5626562 0 0 0 0.0625,0.0312 1.5626562,1.5626562 0 0 0 0.09375,0 1.5626562,1.5626562 0 0 0 0.0625,0.0312 1.5626562,1.5626562 0 0 0 0.09375,0 1.5626562,1.5626562 0 0 0 0.0625,0 1.5626562,1.5626562 0 0 0 0.09375,0 1.5626562,1.5626562 0 0 0 0.375,-0.0625 1.5626562,1.5626562 0 0 0 0.4375,-0.1875 1.5626562,1.5626562 0 0 0 0.125,-0.0937 1.5626562,1.5626562 0 0 0 0.0625,-0.0312 c 1.85968,-1.51849 5.21506,-4.40554 8.1875,-7.875 2.97243,-3.46947 5.66405,-7.48314 5.71875,-11.71875 0.05855,-4.53677 -3.67453,-8.25 -8.1875,-8.25 -2.39775,0 -4.4037,1.25176 -5.8125,2.5 -0.365373,0.32373 -0.677893,0.64594 -0.96875,0.96875 -0.287329,-0.31771 -0.609342,-0.6503 -0.96875,-0.96875 -1.4088,-1.24824 -3.3835,-2.5 -5.78125,-2.5 z m 0,3.125 c 1.27069,0 2.66773,0.78751 3.71875,1.71875 0.52552,0.46562 0.94772,0.93578 1.21875,1.3125 0.13319,0.18513 0.24022,0.35641 0.28125,0.4375 a 1.5626562,1.5626562 0 0 0 0,0.0625 1.5626562,1.5626562 0 0 0 0.03125,0.0937 1.5626562,1.5626562 0 0 0 0.0625,0.15625 1.5626562,1.5626562 0 0 0 0,0.0312 1.5626562,1.5626562 0 0 0 0.125,0.21875 1.5626562,1.5626562 0 0 0 0,0.0312 1.5626562,1.5626562 0 0 0 0.03125,0.0312 1.5626562,1.5626562 0 0 0 0.0625,0.0937 1.5626562,1.5626562 0 0 0 0.03125,0.0312 1.5626562,1.5626562 0 0 0 0.0625,0.0937 1.5626562,1.5626562 0 0 0 0.03125,0.0312 1.5626562,1.5626562 0 0 0 0.09375,0.0625 1.5626562,1.5626562 0 0 0 0.03125,0.0312 1.5626562,1.5626562 0 0 0 0.09375,0.0625 1.5626562,1.5626562 0 0 0 0.03125,0.0312 1.5626562,1.5626562 0 0 0 0.09375,0.0625 1.5626562,1.5626562 0 0 0 0.03125,0.0312 1.5626562,1.5626562 0 0 0 0.09375,0.0312 1.5626562,1.5626562 0 0 0 0.0625,0.0312 1.5626562,1.5626562 0 0 0 0.09375,0.0312 1.5626562,1.5626562 0 0 0 0.03125,0 1.5626562,1.5626562 0 0 0 0.125,0.0312 1.5626562,1.5626562 0 0 0 0.15625,0.0312 1.5626562,1.5626562 0 0 0 0.03125,0 1.5626562,1.5626562 0 0 0 0.125,0 1.5626562,1.5626562 0 0 0 0.03125,0 1.5626562,1.5626562 0 0 0 0.125,0 1.5626562,1.5626562 0 0 0 0.03125,0 1.5626562,1.5626562 0 0 0 0.15625,-0.0312 1.5626562,1.5626562 0 0 0 0.25,-0.0625 1.5626562,1.5626562 0 0 0 0.5625,-0.375 1.5626562,1.5626562 0 0 0 0.1875,-0.28125 1.5626562,1.5626562 0 0 0 0.125,-0.21875 1.5626562,1.5626562 0 0 0 0.03125,-0.0937 1.5626562,1.5626562 0 0 0 0.03125,-0.125 1.5626562,1.5626562 0 0 0 0.03125,-0.125 c 0.04103,-0.0811 0.11681,-0.25237 0.25,-0.4375 0.27103,-0.37672 0.72448,-0.84688 1.25,-1.3125 1.05102,-0.93124 2.44806,-1.71875 3.71875,-1.71875 2.82392,0 5.0986,2.26301 5.0625,5.0625 -0.03662,2.83691 -2.20242,6.52111 -4.96875,9.75 -2.354808,2.74856 -5.017258,5.12326 -6.875,6.6875 -1.857411,-1.56458 -4.524979,-3.94453 -6.875,-6.6875 -2.76633,-3.22889 -4.90088,-6.91309 -4.9375,-9.75 -0.0361,-2.79949 2.23858,-5.0625 5.0625,-5.0625 z"
       style="font-size:medium;font-style:normal;font-variant:normal;font-weight:normal;font-stretch:normal;text-indent:0;text-align:start;text-decoration:none;line-height:normal;letter-spacing:normal;word-spacing:normal;text-transform:none;direction:ltr;block-progression:tb;writing-mode:lr-tb;text-anchor:start;baseline-shift:baseline;color:#000000;fill:#ffffff;fill-opacity:1;stroke:none;stroke-width:2;marker:none;visibility:visible;display:inline;overflow:visible;filter:url(#filter3958);enable-background:accumulate;font-family:Sans;-inkscape-font-specification:Sans" />
    <path
       inkscape:connector-curvature="0"
       id="path3867-1"
       d="m 9.234375,481.81697 c -4.51297,0 -8.24605,3.71323 -8.1875,8.25 0.0547,4.23561 2.74632,8.24928 5.71875,11.71875 2.97244,3.46946 6.32782,6.35651 8.1875,7.875 a 1.5626562,1.5626562 0 0 0 0.0625,0.0312 1.5626562,1.5626562 0 0 0 0.0625,0.0625 1.5626562,1.5626562 0 0 0 0.0625,0.0312 1.5626562,1.5626562 0 0 0 0.4375,0.1875 1.5626562,1.5626562 0 0 0 0.0625,0.0312 1.5626562,1.5626562 0 0 0 0.09375,0 1.5626562,1.5626562 0 0 0 0.0625,0.0312 1.5626562,1.5626562 0 0 0 0.09375,0 1.5626562,1.5626562 0 0 0 0.0625,0 1.5626562,1.5626562 0 0 0 0.09375,0 1.5626562,1.5626562 0 0 0 0.375,-0.0625 1.5626562,1.5626562 0 0 0 0.4375,-0.1875 1.5626562,1.5626562 0 0 0 0.125,-0.0937 1.5626562,1.5626562 0 0 0 0.0625,-0.0312 c 1.85968,-1.51849 5.21506,-4.40554 8.1875,-7.875 2.97243,-3.46947 5.66405,-7.48314 5.71875,-11.71875 0.05855,-4.53677 -3.67453,-8.25 -8.1875,-8.25 -2.39775,0 -4.4037,1.25176 -5.8125,2.5 -0.365373,0.32373 -0.677893,0.64594 -0.96875,0.96875 -0.287329,-0.31771 -0.609342,-0.6503 -0.96875,-0.96875 -1.4088,-1.24824 -3.3835,-2.5 -5.78125,-2.5 z m 0,3.125 c 1.27069,0 2.66773,0.78751 3.71875,1.71875 0.52552,0.46562 0.94772,0.93578 1.21875,1.3125 0.13319,0.18513 0.24022,0.35641 0.28125,0.4375 a 1.5626562,1.5626562 0 0 0 0,0.0625 1.5626562,1.5626562 0 0 0 0.03125,0.0937 1.5626562,1.5626562 0 0 0 0.0625,0.15625 1.5626562,1.5626562 0 0 0 0,0.0312 1.5626562,1.5626562 0 0 0 0.125,0.21875 1.5626562,1.5626562 0 0 0 0,0.0312 1.5626562,1.5626562 0 0 0 0.03125,0.0312 1.5626562,1.5626562 0 0 0 0.0625,0.0937 1.5626562,1.5626562 0 0 0 0.03125,0.0312 1.5626562,1.5626562 0 0 0 0.0625,0.0937 1.5626562,1.5626562 0 0 0 0.03125,0.0312 1.5626562,1.5626562 0 0 0 0.09375,0.0625 1.5626562,1.5626562 0 0 0 0.03125,0.0312 1.5626562,1.5626562 0 0 0 0.09375,0.0625 1.5626562,1.5626562 0 0 0 0.03125,0.0312 1.5626562,1.5626562 0 0 0 0.09375,0.0625 1.5626562,1.5626562 0 0 0 0.03125,0.0312 1.5626562,1.5626562 0 0 0 0.09375,0.0312 1.5626562,1.5626562 0 0 0 0.0625,0.0312 1.5626562,1.5626562 0 0 0 0.09375,0.0312 1.5626562,1.5626562 0 0 0 0.03125,0 1.5626562,1.5626562 0 0 0 0.125,0.0312 1.5626562,1.5626562 0 0 0 0.15625,0.0312 1.5626562,1.5626562 0 0 0 0.03125,0 1.5626562,1.5626562 0 0 0 0.125,0 1.5626562,1.5626562 0 0 0 0.03125,0 1.5626562,1.5626562 0 0 0 0.125,0 1.5626562,1.5626562 0 0 0 0.03125,0 1.5626562,1.5626562 0 0 0 0.15625,-0.0312 1.5626562,1.5626562 0 0 0 0.25,-0.0625 1.5626562,1.5626562 0 0 0 0.5625,-0.375 1.5626562,1.5626562 0 0 0 0.1875,-0.28125 1.5626562,1.5626562 0 0 0 0.125,-0.21875 1.5626562,1.5626562 0 0 0 0.03125,-0.0937 1.5626562,1.5626562 0 0 0 0.03125,-0.125 1.5626562,1.5626562 0 0 0 0.03125,-0.125 c 0.04103,-0.0811 0.11681,-0.25237 0.25,-0.4375 0.27103,-0.37672 0.72448,-0.84688 1.25,-1.3125 1.05102,-0.93124 2.44806,-1.71875 3.71875,-1.71875 2.82392,0 5.0986,2.26301 5.0625,5.0625 -0.03662,2.83691 -2.20242,6.52111 -4.96875,9.75 -2.354808,2.74856 -5.017258,5.12326 -6.875,6.6875 -1.857411,-1.56457 -4.524979,-3.94453 -6.875,-6.6875 -2.76633,-3.22889 -4.90088,-6.91309 -4.9375,-9.75 -0.0361,-2.79949 2.23858,-5.0625 5.0625,-5.0625 z"
       style="font-size:medium;font-style:normal;font-variant:normal;font-weight:normal;font-stretch:normal;text-indent:0;text-align:start;text-decoration:none;line-height:normal;letter-spacing:normal;word-spacing:normal;text-transform:none;direction:ltr;block-progression:tb;writing-mode:lr-tb;text-anchor:start;baseline-shift:baseline;color:#000000;fill:#ffffff;fill-opacity:1;stroke:none;stroke-width:2;marker:none;visibility:visible;display:inline;overflow:visible;enable-background:accumulate;font-family:Sans;-inkscape-font-specification:Sans" />
  </g>
  <g
     transform="translate(0,-480)"
     style="display:none"
     inkscape:label="pin-disabled"
     id="g3817"
     inkscape:groupmode="layer">
    <flowRoot
       transform="matrix(1.6346445,0,0,1.6346445,-113.10701,-135.06198)"
       style="font-size:12px;font-style:normal;font-variant:normal;font-weight:normal;font-stretch:normal;text-align:start;line-height:125%;letter-spacing:0px;word-spacing:0px;writing-mode:lr-tb;text-anchor:start;fill:#ffffff;fill-opacity:0.42261903;stroke:none;font-family:MS UI Gothic;-inkscape-font-specification:MS UI Gothic"
       id="flowRoot3819"
       xml:space="preserve"><flowRegion
         id="flowRegion3821"><rect
           style="fill:#ffffff;fill-opacity:0.42261903"
           y="162.21121"
           x="40.052151"
           height="250.99348"
           width="375.15515"
           id="rect3823" /></flowRegion><flowPara
         id="flowPara3825" /></flowRoot>    <path
       sodipodi:nodetypes="ccsccsc"
       inkscape:connector-curvature="0"
       id="path3827"
       d="m 10.260437,503.59844 -2.63076,5.86493 c -0.24044,0.53632 -0.12305,1.40369 0.53317,1.40158 0.46803,-0.002 1.1369,-0.038 1.56939,-0.95843 l 2.52361,-5.57696 c -0.0737,-0.0189 -0.14655,-0.0369 -0.22029,-0.0575 -0.62695,-0.17521 -1.22065,-0.40349 -1.77512,-0.67365 z"
       style="color:#000000;fill:#b4b4b4;fill-opacity:0.99462346;fill-rule:evenodd;stroke:none;stroke-width:50;marker:none;visibility:visible;display:inline;overflow:visible;enable-background:accumulate" />
    <path
       inkscape:connector-curvature="0"
       id="path3829"
       d="m 11.495997,491.1662 c -2.9461,0.37575 -5.35576,2.04183 -6.07564,4.53359 -1.04625,3.62136 1.87084,7.60932 6.51622,8.90753 4.64539,1.29822 9.25968,-0.58657 10.30593,-4.20793 0.57902,-2.00417 -0.0594,-4.11914 -1.52929,-5.82981 l -0.44378,0.97696 c 0.97961,1.38858 1.36333,3.0118 0.91629,4.55912 -0.91504,3.16725 -4.95002,4.81338 -9.01289,3.67796 -4.06287,-1.13543 -6.61395,-4.62286 -5.69891,-7.79011 0.56846,-1.9676 2.34,-3.34658 4.57509,-3.83758 l 0.44698,-0.98973 z"
       style="color:#000000;fill:#b4b4b4;fill-opacity:0.99462346;fill-rule:evenodd;stroke:none;stroke-width:5.2620101;marker:none;visibility:visible;display:inline;overflow:visible;enable-background:accumulate" />
    <path
       inkscape:connector-curvature="0"
       id="path3831"
       d="m 11.917427,489.59541 -1.59314,3.51513 c -0.45803,1.00969 -0.2876,2.163 0.29053,3.16073 0.57813,0.99773 1.557,1.8713 2.81593,2.44239 1.25893,0.5711 2.56878,0.7362 3.7003,0.51402 1.13152,-0.22217 2.10887,-0.85482 2.5669,-1.86451 l 1.75916,-3.87909 c -0.38513,0.0792 -0.78332,0.13021 -1.19086,0.15644 l -1.49736,3.30121 c -0.2993,0.65979 -0.94321,1.10883 -1.83259,1.28346 -0.88939,0.17463 -2.00015,0.0497 -3.08092,-0.44059 -1.08078,-0.49028 -1.90497,-1.24312 -2.35938,-2.02734 -0.45442,-0.78423 -0.54195,-1.56551 -0.24265,-2.22529 l 1.35369,-2.98514 c -0.25975,-0.30407 -0.49194,-0.62243 -0.68961,-0.95142 z"
       style="font-size:medium;font-style:normal;font-variant:normal;font-weight:normal;font-stretch:normal;text-indent:0;text-align:start;text-decoration:none;line-height:normal;letter-spacing:normal;word-spacing:normal;text-transform:none;direction:ltr;block-progression:tb;writing-mode:lr-tb;text-anchor:start;baseline-shift:baseline;color:#000000;fill:#b4b4b4;fill-opacity:0.99462346;fill-rule:evenodd;stroke:none;stroke-width:10;marker:none;visibility:visible;display:inline;overflow:visible;enable-background:accumulate;font-family:Sans;-inkscape-font-specification:Sans" />
    <path
       inkscape:connector-curvature="0"
       id="path3833"
       d="m 17.702537,480.99118 c -3.25193,0.0179 -6.04433,1.66242 -6.80676,4.29733 -0.97592,3.37268 1.74571,7.08866 6.07883,8.29773 4.33312,1.20907 8.6372,-0.54471 9.61311,-3.9174 0.97592,-3.37268 -1.74571,-7.08866 -6.07883,-8.29773 -0.94787,-0.26449 -1.89581,-0.38495 -2.80635,-0.37993 z m 0.1724,1.02804 c 0.78016,-0.004 1.59193,0.0965 2.40408,0.31607 3.71267,1.0037 6.04341,4.08997 5.20723,6.88977 -0.83617,2.79981 -4.52121,4.25384 -8.23388,3.25014 -3.71267,-1.0037 -6.0466,-4.08678 -5.21043,-6.88658 0.65326,-2.18735 3.04672,-3.55453 5.833,-3.5694 z"
       style="color:#000000;fill:#b4b4b4;fill-opacity:0.99462346;fill-rule:evenodd;stroke:none;stroke-width:5.85099983;marker:none;visibility:visible;display:inline;overflow:visible;enable-background:accumulate" />
    <path
       inkscape:connector-curvature="0"
       id="path3835"
       d="m 15.805637,483.79927 c -0.86492,0.55135 -1.46468,1.35449 -1.61987,2.30972 -0.33797,2.08027 1.56462,4.08822 4.25206,4.48806 2.23493,0.33252 4.30578,-0.55314 5.13473,-2.05743 -1.01869,0.64937 -2.40022,0.9482 -3.85363,0.73196 -2.68745,-0.39984 -4.5936,-2.41057 -4.25563,-4.49084 0.0569,-0.35028 0.1745,-0.67689 0.34234,-0.98147 z"
       style="color:#000000;fill:#b4b4b4;fill-opacity:0.99462346;fill-rule:evenodd;stroke:none;stroke-width:8.59346962;marker:none;visibility:visible;display:inline;overflow:visible;enable-background:accumulate" />
    <path
       inkscape:connector-curvature="0"
       id="path3837"
       d="m 6.669037,494.13272 c -0.43129,0.53753 -0.75948,1.14761 -0.95461,1.82301 -0.99246,3.43521 1.7776,7.2195 6.1842,8.45099 4.02042,1.12356 8.01434,-0.26471 9.43751,-3.12562 -1.76122,2.1993 -5.28214,3.16098 -8.82452,2.17101 -4.4066,-1.23148 -7.17346,-5.01577 -6.181,-8.45098 0.0876,-0.30338 0.20029,-0.59169 0.33842,-0.86841 z"
       style="color:#000000;fill:#b4b4b4;fill-opacity:0.99462346;fill-rule:evenodd;stroke:none;stroke-width:5.2620101;marker:none;visibility:visible;display:inline;overflow:visible;enable-background:accumulate" />
  </g>
  <g
     transform="translate(0,-480)"
     style="display:none"
     inkscape:label="next-disabled"
     id="g3813"
     inkscape:groupmode="layer">
    <path
       id="path3815"
       d="m 20.166797,487.16822 c 1.79743,-0.0827 10.80078,7.10251 10.80078,8.75977 0,1.73876 -9.9106,9.56274 -11.01172,8.69336 -0.3916,-0.30919 -0.64475,-2.4908 -0.75781,-5.20899 l -16.37695,0 c -0.9938801,0 -1.7949201,-0.76328 -1.7949201,-1.71093 l 0,-3.54688 c 0,-0.94765 0.80104,-1.71094 1.7949201,-1.71094 l 16.37695,0 c 0.11306,-2.71819 0.36621,-4.89979 0.75781,-5.20898 0.0516,-0.0408 0.12254,-0.0623 0.21094,-0.0664 z"
       style="color:#000000;fill:#b4b4b4;fill-opacity:0.99462346;fill-rule:evenodd;stroke:none;stroke-width:50;marker:none;visibility:visible;display:inline;overflow:visible;enable-background:accumulate"
       inkscape:connector-curvature="0" />
  </g>
  <g
     transform="translate(0,-480)"
     style="display:none"
     inkscape:label="prev-disabled"
     id="g3809"
     inkscape:groupmode="layer">
    <path
       inkscape:connector-curvature="0"
       id="path3811"
       d="m 11.826957,487.16822 c -1.79743,-0.0827 -10.8007801,7.10251 -10.8007801,8.75977 0,1.73876 9.9106001,9.56274 11.0117101,8.69336 0.3916,-0.30919 0.64475,-2.4908 0.75782,-5.20899 l 16.37695,0 c 0.99388,0 1.79492,-0.76328 1.79492,-1.71093 l 0,-3.54688 c 0,-0.94765 -0.80104,-1.71094 -1.79492,-1.71094 l -16.37695,0 c -0.11307,-2.71819 -0.36622,-4.89979 -0.75782,-5.20898 -0.0516,-0.0408 -0.12254,-0.0623 -0.21093,-0.0664 z"
       style="color:#000000;fill:#b4b4b4;fill-opacity:0.99462346;fill-rule:evenodd;stroke:none;stroke-width:50;marker:none;visibility:visible;display:inline;overflow:visible;enable-background:accumulate" />
  </g>
  <g
     style="display:none"
     transform="translate(0,-1020.3622)"
     id="g3803"
     inkscape:groupmode="layer"
     inkscape:label="reblog-disabled">
    <path
       style="color:#000000;fill:#b4b4b4;fill-opacity:0.99462346;fill-rule:evenodd;stroke:none;stroke-width:50;marker:none;visibility:visible;display:inline;overflow:visible;enable-background:accumulate"
       d="m 26.640625,1025.2416 c -0.0588,0 -0.08967,0.027 -0.125,0.062 -0.18877,0.1872 -0.3123,1.125 -0.375,2.3438 l -19.3125,0 c -0.001,0 0.001,0.021 0,0.031 -0.0731,0 -0.14513,-0.031 -0.21875,-0.031 -2.8902,0 -5.27532,2.2526 -5.46875,5.0937 -0.007,0.049 0.0016,0.1054 0,0.1563 l 0,0.2187 0,2.9375 c 0,1.0769 0.86055,1.9375 1.9375,1.9375 1.07695,0 1.9375,-0.8606 1.9375,-1.9375 l 0,-1.9375 c -5.6e-4,-0.022 0,-0.041 0,-0.062 0,-0.014 0,-0.017 0,-0.031 0.0224,-1.3648 1.12984,-2.4688 2.5,-2.4688 0.0216,0 0.041,10e-4 0.0625,0 l 18.5625,0 c 0.0627,1.2188 0.18623,2.1878 0.375,2.375 0.56529,0.5607 4.34375,-3.191 4.34375,-4.3125 0,-1.0514 -3.33733,-4.4206 -4.21875,-4.375 z m 2.28125,9.3438 c -1.07695,0 -1.9375,0.8606 -1.9375,1.9375 l 0,1.9375 c 5.6e-4,0.022 0,0.041 0,0.062 0,0.014 0,0.017 0,0.031 -0.0224,1.3648 -1.12984,2.4688 -2.5,2.4688 -0.0216,0 -0.07225,0 -0.09375,0 l -18.53125,0 c -0.0627,-1.2188 -0.18623,-2.1878 -0.375,-2.375 -0.56529,-0.5607 -4.34375,3.2222 -4.34375,4.3437 0,1.0514 3.30608,4.3894 4.1875,4.3438 0.0588,0 0.12092,-0.027 0.15625,-0.062 0.18877,-0.1872 0.3123,-1.125 0.375,-2.3438 l 19.3125,0 c 0.001,0 -0.001,-0.021 0,-0.031 0.0731,0 0.14513,0.031 0.21875,0.031 2.8902,0 5.27532,-2.2526 5.46875,-5.0937 0.007,-0.049 -0.0016,-0.1054 0,-0.1563 l 0,-0.2187 0,-2.9375 c 0,-1.0769 -0.86055,-1.9375 -1.9375,-1.9375 z"
       id="path3805"
       inkscape:connector-curvature="0" />
  </g>
  <g
     transform="translate(0,-480)"
     style="display:none"
     inkscape:label="like-disabled"
     id="g3797"
     inkscape:groupmode="layer">
    <path
       inkscape:connector-curvature="0"
       style="font-size:medium;font-style:normal;font-variant:normal;font-weight:normal;font-stretch:normal;text-indent:0;text-align:start;text-decoration:none;line-height:normal;letter-spacing:normal;word-spacing:normal;text-transform:none;direction:ltr;block-progression:tb;writing-mode:lr-tb;text-anchor:start;baseline-shift:baseline;color:#000000;fill:#b4b4b4;fill-opacity:0.99462346;stroke:none;stroke-width:50;marker:none;visibility:visible;display:inline;overflow:visible;enable-background:accumulate;font-family:Sans;-inkscape-font-specification:Sans"
       d="m 9.234375,481.81697 c -4.51297,0 -8.24605,3.71323 -8.1875,8.25 0.0547,4.23561 2.74632,8.24928 5.71875,11.71875 2.97244,3.46946 6.327819,6.35651 8.187499,7.875 a 1.5626562,1.5626562 0 0 0 0.0625,0.0312 1.5626562,1.5626562 0 0 0 0.0625,0.0625 1.5626562,1.5626562 0 0 0 0.0625,0.0312 1.5626562,1.5626562 0 0 0 0.4375,0.1875 1.5626562,1.5626562 0 0 0 0.0625,0.0312 1.5626562,1.5626562 0 0 0 0.09375,0 1.5626562,1.5626562 0 0 0 0.0625,0.0312 1.5626562,1.5626562 0 0 0 0.09375,0 1.5626562,1.5626562 0 0 0 0.0625,0 1.5626562,1.5626562 0 0 0 0.09375,0 1.5626562,1.5626562 0 0 0 0.375,-0.0625 1.5626562,1.5626562 0 0 0 0.4375,-0.1875 1.5626562,1.5626562 0 0 0 0.125,-0.0937 1.5626562,1.5626562 0 0 0 0.0625,-0.0312 c 1.85968,-1.51849 5.21506,-4.40554 8.1875,-7.875 2.97243,-3.46947 5.66405,-7.48314 5.71875,-11.71875 0.05855,-4.53677 -3.67453,-8.25 -8.1875,-8.25 -2.39775,0 -4.4037,1.25176 -5.8125,2.5 -0.365373,0.32373 -0.677893,0.64594 -0.96875,0.96875 -0.287329,-0.31771 -0.609342,-0.6503 -0.96875,-0.96875 -1.4088,-1.24824 -3.3835,-2.5 -5.781249,-2.5 z m 0,3.125 c 1.27069,0 2.667729,0.78751 3.718749,1.71875 0.52552,0.46562 0.94772,0.93578 1.21875,1.3125 0.13319,0.18513 0.24022,0.35641 0.28125,0.4375 a 1.5626562,1.5626562 0 0 0 0,0.0625 1.5626562,1.5626562 0 0 0 0.03125,0.0937 1.5626562,1.5626562 0 0 0 0.0625,0.15625 1.5626562,1.5626562 0 0 0 0,0.0312 1.5626562,1.5626562 0 0 0 0.125,0.21875 1.5626562,1.5626562 0 0 0 0,0.0312 1.5626562,1.5626562 0 0 0 0.03125,0.0312 1.5626562,1.5626562 0 0 0 0.0625,0.0937 1.5626562,1.5626562 0 0 0 0.03125,0.0312 1.5626562,1.5626562 0 0 0 0.0625,0.0937 1.5626562,1.5626562 0 0 0 0.03125,0.0312 1.5626562,1.5626562 0 0 0 0.09375,0.0625 1.5626562,1.5626562 0 0 0 0.03125,0.0312 1.5626562,1.5626562 0 0 0 0.09375,0.0625 1.5626562,1.5626562 0 0 0 0.03125,0.0312 1.5626562,1.5626562 0 0 0 0.09375,0.0625 1.5626562,1.5626562 0 0 0 0.03125,0.0312 1.5626562,1.5626562 0 0 0 0.09375,0.0312 1.5626562,1.5626562 0 0 0 0.0625,0.0312 1.5626562,1.5626562 0 0 0 0.09375,0.0312 1.5626562,1.5626562 0 0 0 0.03125,0 1.5626562,1.5626562 0 0 0 0.125,0.0312 1.5626562,1.5626562 0 0 0 0.15625,0.0312 1.5626562,1.5626562 0 0 0 0.03125,0 1.5626562,1.5626562 0 0 0 0.125,0 1.5626562,1.5626562 0 0 0 0.03125,0 1.5626562,1.5626562 0 0 0 0.125,0 1.5626562,1.5626562 0 0 0 0.03125,0 1.5626562,1.5626562 0 0 0 0.15625,-0.0312 1.5626562,1.5626562 0 0 0 0.25,-0.0625 1.5626562,1.5626562 0 0 0 0.5625,-0.375 1.5626562,1.5626562 0 0 0 0.1875,-0.28125 1.5626562,1.5626562 0 0 0 0.125,-0.21875 1.5626562,1.5626562 0 0 0 0.03125,-0.0937 1.5626562,1.5626562 0 0 0 0.03125,-0.125 1.5626562,1.5626562 0 0 0 0.03125,-0.125 c 0.04103,-0.0811 0.11681,-0.25237 0.25,-0.4375 0.27103,-0.37672 0.72448,-0.84688 1.25,-1.3125 1.05102,-0.93124 2.44806,-1.71875 3.71875,-1.71875 2.82392,0 5.0986,2.26301 5.0625,5.0625 -0.03662,2.83691 -2.20242,6.52111 -4.96875,9.75 -2.354808,2.74856 -5.017258,5.12326 -6.875,6.6875 -1.857411,-1.56458 -4.524979,-3.94453 -6.874999,-6.6875 -2.76633,-3.22889 -4.90088,-6.91309 -4.9375,-9.75 -0.0361,-2.79949 2.23858,-5.0625 5.0625,-5.0625 z"
       id="path3846-1" />
  </g>
  <g
     inkscape:groupmode="layer"
     id="layer5"
     inkscape:label="pin"
     style="display:none"
     transform="translate(0,-480)">
    <flowRoot
       xml:space="preserve"
       id="flowRoot3024"
       style="font-size:12px;font-style:normal;font-variant:normal;font-weight:normal;font-stretch:normal;text-align:start;line-height:125%;letter-spacing:0px;word-spacing:0px;writing-mode:lr-tb;text-anchor:start;fill:#ffffff;fill-opacity:0.42261903;stroke:none;font-family:MS UI Gothic;-inkscape-font-specification:MS UI Gothic"
       transform="matrix(1.6346445,0,0,1.6346445,-113.10701,-135.06198)"><flowRegion
         id="flowRegion3026"><rect
           id="rect3028"
           width="375.15515"
           height="250.99348"
           x="40.052151"
           y="162.21121"
           style="fill:#ffffff;fill-opacity:0.42261903" /></flowRegion><flowPara
         id="flowPara3030" /></flowRoot>    <path
       style="color:#000000;fill:#ffffff;fill-opacity:0.98924734;fill-rule:evenodd;stroke:none;stroke-width:50;marker:none;visibility:visible;display:inline;overflow:visible;enable-background:accumulate"
       d="m 10.260437,503.59844 -2.63076,5.86493 c -0.24044,0.53632 -0.12305,1.40369 0.53317,1.40158 0.46803,-0.002 1.1369,-0.038 1.56939,-0.95843 l 2.52361,-5.57696 c -0.0737,-0.0189 -0.14655,-0.0369 -0.22029,-0.0575 -0.62695,-0.17521 -1.22065,-0.40349 -1.77512,-0.67365 z"
       id="rect3955"
       inkscape:connector-curvature="0"
       sodipodi:nodetypes="ccsccsc" />
    <path
       style="color:#000000;fill:#ffffff;fill-opacity:0.98924734;fill-rule:evenodd;stroke:none;stroke-width:5.2620101;marker:none;visibility:visible;display:inline;overflow:visible;enable-background:accumulate"
       d="m 11.495997,491.1662 c -2.9461,0.37575 -5.35576,2.04183 -6.07564,4.53359 -1.04625,3.62136 1.87084,7.60932 6.51622,8.90753 4.64539,1.29822 9.25968,-0.58657 10.30593,-4.20793 0.57902,-2.00417 -0.0594,-4.11914 -1.52929,-5.82981 l -0.44378,0.97696 c 0.97961,1.38858 1.36333,3.0118 0.91629,4.55912 -0.91504,3.16725 -4.95002,4.81338 -9.01289,3.67796 -4.06287,-1.13543 -6.61395,-4.62286 -5.69891,-7.79011 0.56846,-1.9676 2.34,-3.34658 4.57509,-3.83758 l 0.44698,-0.98973 z"
       id="path3129-4-1"
       inkscape:connector-curvature="0" />
    <path
       style="font-size:medium;font-style:normal;font-variant:normal;font-weight:normal;font-stretch:normal;text-indent:0;text-align:start;text-decoration:none;line-height:normal;letter-spacing:normal;word-spacing:normal;text-transform:none;direction:ltr;block-progression:tb;writing-mode:lr-tb;text-anchor:start;baseline-shift:baseline;color:#000000;fill:#ffffff;fill-opacity:1;fill-rule:evenodd;stroke:none;stroke-width:10;marker:none;visibility:visible;display:inline;overflow:visible;enable-background:accumulate;font-family:Sans;-inkscape-font-specification:Sans"
       d="m 11.917427,489.59541 -1.59314,3.51513 c -0.45803,1.00969 -0.2876,2.163 0.29053,3.16073 0.57813,0.99773 1.557,1.8713 2.81593,2.44239 1.25893,0.5711 2.56878,0.7362 3.7003,0.51402 1.13152,-0.22217 2.10887,-0.85482 2.5669,-1.86451 l 1.75916,-3.87909 c -0.38513,0.0792 -0.78332,0.13021 -1.19086,0.15644 l -1.49736,3.30121 c -0.2993,0.65979 -0.94321,1.10883 -1.83259,1.28346 -0.88939,0.17463 -2.00015,0.0497 -3.08092,-0.44059 -1.08078,-0.49028 -1.90497,-1.24312 -2.35938,-2.02734 -0.45442,-0.78423 -0.54195,-1.56551 -0.24265,-2.22529 l 1.35369,-2.98514 c -0.25975,-0.30407 -0.49194,-0.62243 -0.68961,-0.95142 z"
       id="rect3917"
       inkscape:connector-curvature="0" />
    <path
       style="color:#000000;fill:#ffffff;fill-opacity:0.98924734;fill-rule:evenodd;stroke:none;stroke-width:5.85099983;marker:none;visibility:visible;display:inline;overflow:visible;enable-background:accumulate"
       d="m 17.702537,480.99118 c -3.25193,0.0179 -6.04433,1.66242 -6.80676,4.29733 -0.97592,3.37268 1.74571,7.08866 6.07883,8.29773 4.33312,1.20907 8.6372,-0.54471 9.61311,-3.9174 0.97592,-3.37268 -1.74571,-7.08866 -6.07883,-8.29773 -0.94787,-0.26449 -1.89581,-0.38495 -2.80635,-0.37993 z m 0.1724,1.02804 c 0.78016,-0.004 1.59193,0.0965 2.40408,0.31607 3.71267,1.0037 6.04341,4.08997 5.20723,6.88977 -0.83617,2.79981 -4.52121,4.25384 -8.23388,3.25014 -3.71267,-1.0037 -6.0466,-4.08678 -5.21043,-6.88658 0.65326,-2.18735 3.04672,-3.55453 5.833,-3.5694 z"
       id="path17"
       inkscape:connector-curvature="0" />
    <path
       style="color:#000000;fill:#ffffff;fill-opacity:0.98924734;fill-rule:evenodd;stroke:none;stroke-width:8.59346962;marker:none;visibility:visible;display:inline;overflow:visible;enable-background:accumulate"
       d="m 15.805637,483.79927 c -0.86492,0.55135 -1.46468,1.35449 -1.61987,2.30972 -0.33797,2.08027 1.56462,4.08822 4.25206,4.48806 2.23493,0.33252 4.30578,-0.55314 5.13473,-2.05743 -1.01869,0.64937 -2.40022,0.9482 -3.85363,0.73196 -2.68745,-0.39984 -4.5936,-2.41057 -4.25563,-4.49084 0.0569,-0.35028 0.1745,-0.67689 0.34234,-0.98147 z"
       id="path3129-4-7"
       inkscape:connector-curvature="0" />
    <path
       style="color:#000000;fill:#ffffff;fill-opacity:0.98924734;fill-rule:evenodd;stroke:none;stroke-width:5.2620101;marker:none;visibility:visible;display:inline;overflow:visible;enable-background:accumulate"
       d="m 6.669037,494.13272 c -0.43129,0.53753 -0.75948,1.14761 -0.95461,1.82301 -0.99246,3.43521 1.7776,7.2195 6.1842,8.45099 4.02042,1.12356 8.01434,-0.26471 9.43751,-3.12562 -1.76122,2.1993 -5.28214,3.16098 -8.82452,2.17101 -4.4066,-1.23148 -7.17346,-5.01577 -6.181,-8.45098 0.0876,-0.30338 0.20029,-0.59169 0.33842,-0.86841 z"
       id="path3129-4-1-0"
       inkscape:connector-curvature="0" />
  </g>
  <g
     inkscape:groupmode="layer"
     id="layer4"
     inkscape:label="next"
     style="display:none"
     transform="translate(0,-480)">
    <path
       inkscape:connector-curvature="0"
       style="color:#000000;fill:#ffffff;fill-opacity:1;fill-rule:evenodd;stroke:none;stroke-width:50;marker:none;visibility:visible;display:inline;overflow:visible;enable-background:accumulate"
       d="m 20.166797,487.16822 c 1.79743,-0.0827 10.80078,7.10251 10.80078,8.75977 0,1.73876 -9.9106,9.56274 -11.01172,8.69336 -0.3916,-0.30919 -0.64475,-2.4908 -0.75781,-5.20899 l -16.37695,0 c -0.9938801,0 -1.7949201,-0.76328 -1.7949201,-1.71093 l 0,-3.54688 c 0,-0.94765 0.80104,-1.71094 1.7949201,-1.71094 l 16.37695,0 c 0.11306,-2.71819 0.36621,-4.89979 0.75781,-5.20898 0.0516,-0.0408 0.12254,-0.0623 0.21094,-0.0664 z"
       id="rect3797-7" />
  </g>
  <g
     inkscape:groupmode="layer"
     id="layer3"
     inkscape:label="prev"
     style="display:none"
     transform="translate(0,-480)">
    <path
       style="color:#000000;fill:#ffffff;fill-opacity:1;fill-rule:evenodd;stroke:none;stroke-width:50;marker:none;visibility:visible;display:inline;overflow:visible;enable-background:accumulate"
       d="m 11.826957,487.16822 c -1.79743,-0.0827 -10.8007801,7.10251 -10.8007801,8.75977 0,1.73876 9.9106001,9.56274 11.0117101,8.69336 0.3916,-0.30919 0.64475,-2.4908 0.75782,-5.20899 l 16.37695,0 c 0.99388,0 1.79492,-0.76328 1.79492,-1.71093 l 0,-3.54688 c 0,-0.94765 -0.80104,-1.71094 -1.79492,-1.71094 l -16.37695,0 c -0.11307,-2.71819 -0.36622,-4.89979 -0.75782,-5.20898 -0.0516,-0.0408 -0.12254,-0.0623 -0.21093,-0.0664 z"
       id="rect3797"
       inkscape:connector-curvature="0" />
  </g>
  <g
     inkscape:label="reblog"
     inkscape:groupmode="layer"
     id="layer1"
     transform="translate(0,-1020.3622)"
     style="display:none">
    <path
       style="color:#000000;fill:#ffffff;fill-opacity:1;fill-rule:evenodd;stroke:none;stroke-width:50;marker:none;visibility:visible;display:inline;overflow:visible;enable-background:accumulate"
       d="m 26.656207,1025.236 c -0.0588,0 -0.106,0.022 -0.14133,0.057 -0.18877,0.1872 -0.31547,1.1495 -0.37817,2.3683 l -19.31897,0 c -0.001,0 -0.003,0 -0.004,0.01 -0.0731,0 -0.14603,-0.01 -0.21965,-0.01 -2.8902,0 -5.2556001,2.245 -5.4490301,5.0861 -0.007,0.049 -0.0118,0.1 -0.0134,0.1509 l 0,0.2254 0,2.9222 c 0,1.0769 0.8673601,1.9443 1.9443101,1.9443 1.07695,0 1.94431,-0.8674 1.94431,-1.9443 l 0,-1.9252 c -5.6e-4,-0.022 -0.002,-0.043 -0.002,-0.065 0,-0.014 0.002,-0.028 0.002,-0.042 0.0224,-1.3648 1.13376,-2.4657 2.50392,-2.4657 0.0216,0 0.0434,10e-4 0.0649,0 l 18.54735,0 c 0.0627,1.2188 0.1894,2.183 0.37817,2.3702 0.56529,0.5607 4.347,-3.193 4.347,-4.3145 0,-1.0514 -3.32425,-4.4156 -4.20567,-4.37 z"
       id="path3779"
       inkscape:connector-curvature="0" />
    <path
       inkscape:connector-curvature="0"
       id="use3861"
       d="m 5.337545,1047.3445 c 0.0588,0 0.106,-0.022 0.14133,-0.057 0.18877,-0.1872 0.31547,-1.1495 0.37817,-2.3683 l 19.31897,0 c 0.001,0 0.003,0 0.004,-0.01 0.0731,0 0.14603,0.01 0.21965,0.01 2.8902,0 5.2556,-2.245 5.44903,-5.0861 0.007,-0.049 0.0118,-0.1 0.0134,-0.1509 l 0,-0.2254 0,-2.9222 c 0,-1.0769 -0.86736,-1.9443 -1.94431,-1.9443 -1.07695,0 -1.94431,0.8674 -1.94431,1.9443 l 0,1.9252 c 5.6e-4,0.022 0.002,0.043 0.002,0.065 0,0.014 -0.002,0.028 -0.002,0.042 -0.0224,1.3648 -1.13376,2.4657 -2.50392,2.4657 -0.0216,0 -0.0434,-10e-4 -0.0649,0 l -18.54735,0 c -0.0627,-1.2188 -0.1894,-2.183 -0.37817,-2.3702 -0.56529,-0.5607 -4.347,3.193 -4.347,4.3145 0,1.0514 3.32425,4.4156 4.20567,4.37 z"
       style="color:#000000;fill:#ffffff;fill-opacity:1;fill-rule:evenodd;stroke:none;stroke-width:50;marker:none;visibility:visible;display:inline;overflow:visible;enable-background:accumulate" />
  </g>
  <g
     inkscape:groupmode="layer"
     id="layer2"
     inkscape:label="like"
     style="display:none"
     transform="translate(0,-480)">
    <path
       style="font-size:medium;font-style:normal;font-variant:normal;font-weight:normal;font-stretch:normal;text-indent:0;text-align:start;text-decoration:none;line-height:normal;letter-spacing:normal;word-spacing:normal;text-transform:none;direction:ltr;block-progression:tb;writing-mode:lr-tb;text-anchor:start;baseline-shift:baseline;color:#000000;fill:#ffffff;fill-opacity:1;stroke:none;stroke-width:50;marker:none;visibility:visible;display:inline;overflow:visible;enable-background:accumulate;font-family:Sans;-inkscape-font-specification:Sans"
       d="m 9.234375,481.81687 c -4.51297,0 -8.24605,3.71323 -8.1875,8.25 0.0547,4.23561 2.74632,8.24928 5.71875,11.71875 2.97244,3.46946 6.32782,6.35651 8.1875,7.875 a 1.5626562,1.5626562 0 0 0 0.0625,0.0312 1.5626562,1.5626562 0 0 0 0.0625,0.0625 1.5626562,1.5626562 0 0 0 0.0625,0.0312 1.5626562,1.5626562 0 0 0 0.4375,0.1875 1.5626562,1.5626562 0 0 0 0.0625,0.0312 1.5626562,1.5626562 0 0 0 0.09375,0 1.5626562,1.5626562 0 0 0 0.0625,0.0312 1.5626562,1.5626562 0 0 0 0.09375,0 1.5626562,1.5626562 0 0 0 0.0625,0 1.5626562,1.5626562 0 0 0 0.09375,0 1.5626562,1.5626562 0 0 0 0.375,-0.0625 1.5626562,1.5626562 0 0 0 0.4375,-0.1875 1.5626562,1.5626562 0 0 0 0.125,-0.0937 1.5626562,1.5626562 0 0 0 0.0625,-0.0312 c 1.85968,-1.51849 5.21506,-4.40554 8.1875,-7.875 2.97243,-3.46947 5.66405,-7.48314 5.71875,-11.71875 0.05855,-4.53677 -3.67453,-8.25 -8.1875,-8.25 -2.39775,0 -4.4037,1.25176 -5.8125,2.5 -0.365373,0.32373 -0.677893,0.64594 -0.96875,0.96875 -0.287329,-0.31771 -0.609342,-0.6503 -0.96875,-0.96875 -1.4088,-1.24824 -3.3835,-2.5 -5.78125,-2.5 z m 0,3.125 c 1.27069,0 2.66773,0.78751 3.71875,1.71875 0.52552,0.46562 0.94772,0.93578 1.21875,1.3125 0.13319,0.18513 0.24022,0.35641 0.28125,0.4375 a 1.5626562,1.5626562 0 0 0 0,0.0625 1.5626562,1.5626562 0 0 0 0.03125,0.0937 1.5626562,1.5626562 0 0 0 0.0625,0.15625 1.5626562,1.5626562 0 0 0 0,0.0312 1.5626562,1.5626562 0 0 0 0.125,0.21875 1.5626562,1.5626562 0 0 0 0,0.0312 1.5626562,1.5626562 0 0 0 0.03125,0.0312 1.5626562,1.5626562 0 0 0 0.0625,0.0937 1.5626562,1.5626562 0 0 0 0.03125,0.0312 1.5626562,1.5626562 0 0 0 0.0625,0.0937 1.5626562,1.5626562 0 0 0 0.03125,0.0312 1.5626562,1.5626562 0 0 0 0.09375,0.0625 1.5626562,1.5626562 0 0 0 0.03125,0.0312 1.5626562,1.5626562 0 0 0 0.09375,0.0625 1.5626562,1.5626562 0 0 0 0.03125,0.0312 1.5626562,1.5626562 0 0 0 0.09375,0.0625 1.5626562,1.5626562 0 0 0 0.03125,0.0312 1.5626562,1.5626562 0 0 0 0.09375,0.0312 1.5626562,1.5626562 0 0 0 0.0625,0.0312 1.5626562,1.5626562 0 0 0 0.09375,0.0312 1.5626562,1.5626562 0 0 0 0.03125,0 1.5626562,1.5626562 0 0 0 0.125,0.0312 1.5626562,1.5626562 0 0 0 0.15625,0.0312 1.5626562,1.5626562 0 0 0 0.03125,0 1.5626562,1.5626562 0 0 0 0.125,0 1.5626562,1.5626562 0 0 0 0.03125,0 1.5626562,1.5626562 0 0 0 0.125,0 1.5626562,1.5626562 0 0 0 0.03125,0 1.5626562,1.5626562 0 0 0 0.15625,-0.0312 1.5626562,1.5626562 0 0 0 0.25,-0.0625 1.5626562,1.5626562 0 0 0 0.5625,-0.375 1.5626562,1.5626562 0 0 0 0.1875,-0.28125 1.5626562,1.5626562 0 0 0 0.125,-0.21875 1.5626562,1.5626562 0 0 0 0.03125,-0.0937 1.5626562,1.5626562 0 0 0 0.03125,-0.125 1.5626562,1.5626562 0 0 0 0.03125,-0.125 c 0.04103,-0.0811 0.11681,-0.25237 0.25,-0.4375 0.27103,-0.37672 0.72448,-0.84688 1.25,-1.3125 1.05102,-0.93124 2.44806,-1.71875 3.71875,-1.71875 2.82392,0 5.0986,2.26301 5.0625,5.0625 -0.03662,2.83691 -2.20242,6.52111 -4.96875,9.75 -2.354808,2.74856 -5.017258,5.12326 -6.875,6.6875 -1.857411,-1.56458 -4.524979,-3.94453 -6.875,-6.6875 -2.76633,-3.22889 -4.90088,-6.91309 -4.9375,-9.75 -0.0361,-2.79949 2.23858,-5.0625 5.0625,-5.0625 z"
       id="path3846"
       inkscape:connector-curvature="0" />
  </g>
</svg>
